<?xml version="1.0" encoding="UTF-8" standalone="no"?>
<!DOCTYPE svg PUBLIC "-//W3C//DTD SVG 1.1//EN" "http://www.w3.org/Graphics/SVG/1.1/DTD/svg11.dtd">
<svg version="1.1" xmlns="http://www.w3.org/2000/svg" xmlns:xlink="http://www.w3.org/1999/xlink" preserveAspectRatio="xMidYMid meet" viewBox="0 0 640 640" width="640" height="640"><defs><path d="M33.1 496.55L33.1 143.45L320 286.9L320 640L33.1 496.55Z" id="m1sVYEXiUQ"></path><path d="M606.9 497.1L606.9 144L320 287.45L320 640.55L606.9 497.1Z" id="bCMieSKXE"></path><path d="M308.97 0.3L606.9 143.74L320 287.19L33.1 143.74L308.97 0.3Z" id="cbreVLtbs"></path><path d="M322.35 141.16L164.79 205.06L172.04 192.94L307.86 133.32L322.35 141.16Z" id="b49x4ZR2WW"></path><path d="M306.04 134.21C306.04 129.07 306.04 87.94 306.04 82.8C290.91 98.7 265.5 117.68 226.93 124.19C221.74 125.07 216.82 121.57 215.94 116.38C215.07 111.19 218.57 106.27 223.76 105.39C283.13 95.37 306.13 51.75 307.08 49.89C309.09 45.98 313.53 43.93 317.8 44.96C322.08 46 325.11 49.81 325.11 54.21C325.11 62.21 325.11 126.21 325.11 134.21C325.11 139.48 320.84 143.74 315.58 143.74C310.31 143.74 306.04 139.48 306.04 134.21Z" id="a1N4AWeZM"></path><path d="M242.94 124.34C223.35 164.53 191.36 198.64 152.33 220.47C123.94 236.36 90.31 245.68 56.65 247.93C39.52 249.08 22.38 248.39 5.94 245.81C3.14 245.38 1.97 241.96 3.93 239.9C8.01 235.62 11.78 231.04 15.23 226.23C36.9 195.85 47.94 155.4 76.31 128.75C97.01 109.29 123.46 97.79 151.4 93.68C173.81 90.37 196.83 91.57 219.05 95.75C221.87 96.67 244.46 104.04 247.29 104.96C249.22 105.58 250.24 107.72 249.49 109.6C247.49 114.59 245.32 119.51 242.94 124.34Z" id="l2qjxFDVWP"></path><path d="M152.1 220.57C123.7 236.45 90.08 245.78 56.41 248.03C74.47 218.99 85.95 183.5 111.66 159.35C132.36 139.89 158.81 128.39 186.75 124.27C205.26 121.54 224.18 121.88 242.71 124.44C223.11 164.62 191.13 198.73 152.1 220.57Z" id="c4sMLZ1L0O"></path><path d="M315.62 44.7L318.15 45.09L321.48 46.78L324.05 49.95L325.11 53.39L325.11 132.25L324.83 136.3L322.79 140.29L319.56 142.82L315.89 143.66L315.62 44.7Z" id="a93KYBcuk6"></path></defs><g><g><g><use xlink:href="#m1sVYEXiUQ" opacity="1" fill="#d1d40b" fill-opacity="1"></use><g><use xlink:href="#m1sVYEXiUQ" opacity="1" fill-opacity="0" stroke="#000000" stroke-width="1" stroke-opacity="0"></use></g></g><g><use xlink:href="#bCMieSKXE" opacity="1" fill="#e8eb0c" fill-opacity="1"></use><g><use xlink:href="#bCMieSKXE" opacity="1" fill-opacity="0" stroke="#000000" stroke-width="1" stroke-opacity="0"></use></g></g><g><use xlink:href="#cbreVLtbs" opacity="1" fill="#fcff0d" fill-opacity="1"></use><g><use xlink:href="#cbreVLtbs" opacity="1" fill-opacity="0" stroke="#000000" stroke-width="1" stroke-opacity="0"></use></g></g><g><use xlink:href="#b49x4ZR2WW" opacity="1" fill="#d7da0d" fill-opacity="1"></use></g><g><use xlink:href="#a1N4AWeZM" opacity="1" fill="#aa6100" fill-opacity="1"></use><g><use xlink:href="#a1N4AWeZM" opacity="1" fill-opacity="0" stroke="#000000" stroke-width="1" stroke-opacity="0"></use></g></g><g><use xlink:href="#l2qjxFDVWP" opacity="1" fill="#6dc82a" fill-opacity="1"></use><g><use xlink:href="#l2qjxFDVWP" opacity="1" fill-opacity="0" stroke="#000000" stroke-width="1" stroke-opacity="0"></use></g></g><g><use xlink:href="#c4sMLZ1L0O" opacity="1" fill="#7ed63e" fill-opacity="1"></use><g><use xlink:href="#c4sMLZ1L0O" opacity="1" fill-opacity="0" stroke="#000000" stroke-width="1" stroke-opacity="0"></use></g></g><g><use xlink:href="#a93KYBcuk6" opacity="1" fill="#d17700" fill-opacity="1"></use></g></g></g></svg>